HIERARCHY
ROOT Hips
{
 OFFSET 0.000000 0.000000 0.000000
 CHANNELS 6 Xposition Yposition Zposition Yrotation Xrotation Zrotation
 JOINT Chest
 {
  OFFSET 0.000000 9.857222 0.000240
  CHANNELS 3 Yrotation Xrotation Zrotation
  JOINT Chest2
  {
   OFFSET 0.000000 10.876940 -0.000436
   CHANNELS 3 Yrotation Xrotation Zrotation
   JOINT Chest3
   {
    OFFSET 0.000000 9.827798 0.000000
    CHANNELS 3 Yrotation Xrotation Zrotation
    JOINT Chest4
    {
     OFFSET 0.000000 9.827798 0.000000
     CHANNELS 3 Yrotation Xrotation Zrotation
     JOINT Neck
     {
      OFFSET 0.000000 13.831992 0.000000
      CHANNELS 3 Yrotation Xrotation Zrotation
      JOINT Head
      {
       OFFSET 0.000000 9.147643 -0.001036
       CHANNELS 3 Yrotation Xrotation Zrotation
       End Site
       {
        OFFSET 0.000000 17.515799 -0.000541
       }
      }
     }
     JOINT RightCollar
     {
      OFFSET -3.001579 7.717577 0.000000
      CHANNELS 3 Yrotation Xrotation Zrotation
      JOINT RightShoulder
      {
       OFFSET -14.002642 0.000000 0.000000
       CHANNELS 3 Yrotation Xrotation Zrotation
       JOINT RightElbow
       {
        OFFSET -30.053852 0.000000 0.000000
        CHANNELS 3 Yrotation Xrotation Zrotation
        JOINT RightWrist
        {
         OFFSET -24.564923 0.000000 -0.000000
         CHANNELS 3 Yrotation Xrotation Zrotation
         End Site
         {
          OFFSET -18.334355 0.000000 0.000000
         }
        }
       }
      }
     }
     JOINT LeftCollar
     {
      OFFSET 3.001579 7.717577 0.000000
      CHANNELS 3 Yrotation Xrotation Zrotation
      JOINT LeftShoulder
      {
       OFFSET 14.002642 0.000000 0.000000
       CHANNELS 3 Yrotation Xrotation Zrotation
       JOINT LeftElbow
       {
        OFFSET 30.053852 0.000000 0.000000
        CHANNELS 3 Yrotation Xrotation Zrotation
        JOINT LeftWrist
        {
         OFFSET 24.564923 0.000000 -0.000000
         CHANNELS 3 Yrotation Xrotation Zrotation
         End Site
         {
          OFFSET 18.334355 0.000000 0.000000
         }
        }
       }
      }
     }
    }
   }
  }
 }
 JOINT RightHip
 {
  OFFSET -8.003235 -0.001175 -0.000120
  CHANNELS 3 Yrotation Xrotation Zrotation
  JOINT RightKnee
  {
   OFFSET 0.000000 -41.759727 0.000113
   CHANNELS 3 Yrotation Xrotation Zrotation
   JOINT RightAnkle
   {
    OFFSET 0.000000 -40.728748 0.000159
    CHANNELS 3 Yrotation Xrotation Zrotation
    JOINT RightToe
    {
     OFFSET 0.000000 -6.515296 14.732841
     CHANNELS 3 Yrotation Xrotation Zrotation
     End Site
     {
      OFFSET 0.000000 -1.502839 6.412115
     }
    }
   }
  }
 }
 JOINT LeftHip
 {
  OFFSET 8.003235 -0.001175 -0.000120
  CHANNELS 3 Yrotation Xrotation Zrotation
  JOINT LeftKnee
  {
   OFFSET 0.000000 -41.759727 0.000113
   CHANNELS 3 Yrotation Xrotation Zrotation
   JOINT LeftAnkle
   {
    OFFSET 0.000000 -40.728748 0.000159
    CHANNELS 3 Yrotation Xrotation Zrotation
    JOINT LeftToe
    {
     OFFSET 0.000000 -6.515296 14.732841
     CHANNELS 3 Yrotation Xrotation Zrotation
     End Site
     {
      OFFSET 0.000000 -1.502839 6.412115
     }
    }
   }
  }
 }
}
MOTION
Frames: 15
Frame Time: 0.016667
13.367116 92.438068 21.107250 -92.458955 4.141715 -1.564258 -14.398910 9.237826 -0.846491 -5.490790 3.552473 -0.179466 -5.490790 3.552473 -0.179466 -4.115728 2.666222 -0.102612 -19.724697 19.840678 10.517333 -38.608751 6.454585 24.138513 0.272048 -13.266394 -0.070545 -8.067571 -0.421075 19.528119 5.899616 0.884357 -3.649344 3.062211 6.949413 -6.092990 -20.445145 -8.475029 -10.922638 -32.144030 10.800824 -63.472012 -21.895109 -30.141482 -4.217319 2.830376 6.884595 5.624717 21.615446 -3.206921 -5.330107 6.535693 -3.609591 2.340629 3.625769 10.626858 14.731929 2.781969 -5.700424 -11.946961 17.550354 4.231772 -1.851195 22.508954 3.395612 -1.109319 17.661629 -8.294650 0.339250 -0.959897 -0.778159 -0.526717
13.398948 92.434518 21.121968 -92.408899 3.990223 -1.520711 -14.390045 9.246613 -0.877805 -5.495597 3.565205 -0.196172 -5.495597 3.565205 -0.196172 -4.119222 2.675924 -0.114995 -19.728084 19.902232 10.430503 -38.580165 6.530413 23.967334 0.260697 -13.255238 -0.041840 -7.778411 -0.399670 19.593295 5.598355 0.980294 -3.602610 3.060140 6.868629 -5.965968 -20.436846 -8.427589 -10.934088 -32.171769 10.818789 -63.620126 -22.006285 -31.186518 -3.879642 2.746998 6.836583 5.734596 21.733189 -3.084203 -5.277881 6.078540 -3.468632 2.385130 3.720979 10.516753 14.490745 2.832459 -5.752618 -11.829650 17.457241 4.476463 -2.007761 22.496481 3.085539 -0.934078 17.562800 -8.235454 0.317885 -0.976347 -0.701504 -0.473869
13.444550 92.433145 21.110236 -92.454256 3.833300 -1.468996 -14.305222 9.210678 -0.919274 -5.485947 3.584884 -0.219679 -5.485947 3.584884 -0.219679 -4.111827 2.690891 -0.132500 -19.722137 19.955948 10.347966 -38.537926 6.590881 23.804563 0.279620 -13.202085 -0.004031 -7.541189 -0.429415 19.660095 5.362234 0.917802 -3.658718 3.072800 6.826108 -5.865283 -20.420980 -8.424391 -10.927887 -32.242987 10.928649 -63.763421 -22.124778 -31.956884 -3.615222 2.681413 6.748289 5.769436 21.678936 -2.940267 -5.225913 5.967994 -3.467008 2.317970 3.895199 10.502734 14.472228 2.777024 -5.817095 -11.793018 17.041781 4.622361 -2.072232 22.774416 3.023283 -0.952687 17.704085 -8.274342 0.309029 -0.971307 -0.663534 -0.415035
13.474598 92.428553 21.101805 -92.444529 3.630014 -1.395747 -14.269613 9.236937 -0.988232 -5.473651 3.603727 -0.234586 -5.473651 3.603727 -0.234586 -4.102500 2.705153 -0.143580 -19.708824 19.989093 10.294242 -38.494068 6.623781 23.697529 0.333446 -13.166198 0.030049 -7.475690 -0.528288 19.567263 5.298704 0.827380 -3.582187 3.073905 6.893189 -5.946468 -20.354298 -8.445884 -10.937511 -32.327261 11.061454 -63.838446 -22.165659 -32.403646 -3.590189 2.640095 6.689736 5.839415 21.305033 -2.672592 -5.177188 6.118505 -3.624050 2.310305 4.043712 10.502591 14.419118 2.721401 -5.793110 -11.764933 17.095029 4.851062 -2.049792 22.682148 2.988362 -1.035015 17.676507 -8.322539 0.319680 -0.953226 -0.645221 -0.368206
13.494995 92.418145 21.101263 -92.278324 3.438599 -1.314935 -14.312399 9.291939 -1.053021 -5.475365 3.607672 -0.235156 -5.475365 3.607672 -0.235156 -4.103777 2.708117 -0.143961 -19.706094 20.010588 10.263556 -38.477089 6.648851 23.636464 0.366518 -13.126070 0.060904 -7.494142 -0.583689 19.410725 5.338226 0.850763 -3.461736 3.052667 6.925078 -6.117543 -20.296814 -8.445605 -10.976481 -32.244003 11.134324 -63.822633 -22.144435 -32.393225 -3.733227 2.633202 6.641015 5.877651 20.846421 -2.350283 -5.170441 6.280653 -3.846605 2.377307 3.988199 10.474739 14.251288 2.707953 -5.690557 -11.680014 17.485437 5.113103 -1.943601 22.210474 2.935124 -1.226246 17.424017 -8.389011 0.431165 -0.926952 -0.620251 -0.339793
12.992692 92.388185 21.092117 -89.381347 0.255911 -1.171605 -17.145418 12.301153 -1.946186 -5.476846 3.607427 -0.229325 -5.476846 3.607427 -0.229325 -4.104922 2.707882 -0.139582 -19.705978 20.024827 10.261734 -38.472903 6.673343 23.628743 0.364743 -13.079587 0.103556 -7.499180 -0.550393 19.366236 5.408513 0.878538 -3.492634 3.030047 6.890792 -6.304419 -20.264392 -8.436056 -11.007249 -32.080486 11.134513 -63.825015 -22.105316 -32.089824 -3.875505 2.658868 6.611201 5.888221 17.757203 1.671803 -3.237518 6.461763 -4.093316 2.441695 0.317101 9.324769 10.935923 5.906244 -4.472345 -10.004882 15.123342 8.339166 -0.948544 22.030690 2.943109 -1.377000 17.185721 -8.463564 0.443465 -0.937843 -0.658436 -0.330990
13.023341 92.371458 21.107751 -89.153283 0.078824 -1.066758 -17.229884 12.364744 -2.055128 -5.472408 3.604722 -0.216933 -5.472408 3.604722 -0.216933 -4.101670 2.705740 -0.130342 -19.703637 20.028556 10.274903 -38.470656 6.684323 23.650221 0.317769 -13.082140 0.123106 -7.453955 -0.435174 19.452285 5.487113 0.816245 -3.660449 2.999520 6.904285 -6.411766 -20.278200 -8.445357 -11.028302 -31.944754 11.100444 -63.880359 -22.054703 -31.722306 -3.936808 2.691370 6.604683 5.867394 17.310307 2.046900 -3.269911 6.423580 -4.364280 2.463881 0.497319 9.296669 10.635547 5.908936 -4.370026 -9.754668 15.069496 8.475550 -0.960347 22.004381 3.027330 -1.423087 16.899178 -8.529697 0.476662 -0.920185 -0.662202 -0.305078
13.070333 92.346937 21.138048 -88.935159 -0.051107 -0.943621 -17.304000 12.391119 -2.168805 -5.470471 3.597383 -0.200648 -5.470471 3.597383 -0.200648 -4.100322 2.700089 -0.118208 -19.698621 20.038103 10.288117 -38.462176 6.704704 23.669457 0.291711 -13.125901 0.118087 -7.458254 -0.332418 19.534707 5.566955 0.798666 -3.785367 2.969115 6.919569 -6.461365 -20.283776 -8.441715 -11.057629 -31.893647 11.025032 -63.960867 -21.995491 -31.404940 -3.950346 2.719685 6.606835 5.827355 16.990910 2.339657 -3.333770 6.383983 -4.558985 2.476313 0.378005 9.212754 10.304806 5.851584 -4.274339 -9.463208 14.939407 8.545936 -1.057072 22.033129 3.118081 -1.429130 16.742941 -8.580426 0.474939 -0.904529 -0.673383 -0.264927
13.123154 92.314338 21.168913 -88.667577 -0.227079 -0.826488 -17.421835 12.461683 -2.294296 -5.470702 3.594647 -0.186334 -5.470702 3.594647 -0.186334 -4.100583 2.697909 -0.107499 -19.691129 20.061600 10.313948 -38.448511 6.753926 23.705951 0.279663 -13.109015 0.118345 -7.535472 -0.304570 19.530064 5.698652 0.723065 -3.778997 2.920778 6.983915 -6.504760 -20.286429 -8.451909 -11.081933 -31.908006 10.976040 -64.023084 -21.935305 -31.234255 -4.004493 2.738491 6.618112 5.753600 16.729403 2.648383 -3.409921 6.294511 -4.688849 2.546173 0.318517 9.088897 9.873162 5.861935 -4.196944 -9.095053 14.581063 8.634303 -1.177930 22.154238 3.223148 -1.405632 16.785249 -8.612897 0.417431 -0.890164 -0.689452 -0.213122
13.181393 92.274924 21.193827 -88.439601 -0.364137 -0.775747 -17.491924 12.515725 -2.345977 -5.472711 3.594310 -0.172245 -5.472711 3.594310 -0.172245 -4.102172 2.697531 -0.096925 -19.679668 20.091497 10.342717 -38.426782 6.814265 23.744867 0.277354 -13.091815 0.119385 -7.615605 -0.371133 19.458546 5.768495 0.744570 -3.626448 2.873948 7.058389 -6.563146 -20.266414 -8.429849 -11.120117 -31.956151 10.958897 -64.013313 -21.924381 -31.226272 -4.100769 2.750131 6.673373 5.655419 16.446089 2.898461 -3.417236 6.353428 -4.813407 2.569379 0.381593 8.929637 9.445120 5.913106 -4.108257 -8.703010 14.360921 8.698019 -1.225168 22.202606 3.284176 -1.390418 16.719823 -8.669625 0.364586 -0.881979 -0.656142 -0.163657
13.237212 92.229821 21.233259 -88.265436 -0.456809 -0.772764 -17.502087 12.539068 -2.348205 -5.470617 3.593237 -0.161914 -5.470617 3.593237 -0.161914 -4.100664 2.696632 -0.089201 -19.674676 20.122577 10.358514 -38.413489 6.873852 23.761844 0.251922 -13.085431 0.132599 -7.664303 -0.539001 19.340069 5.731264 0.940806 -3.393581 2.855292 7.124872 -6.559976 -20.258699 -8.417732 -11.148289 -31.977148 11.018542 -63.961307 -21.975938 -31.238402 -4.249804 2.772932 6.737731 5.552293 16.278127 3.071996 -3.368390 6.457570 -4.906234 2.552013 0.145579 8.756560 9.071262 5.948415 -4.011372 -8.356826 14.425783 8.763603 -1.277450 22.080770 3.219135 -1.307545 16.705626 -8.700743 0.284151 -0.881694 -0.587434 -0.117474
13.299097 92.183891 21.277547 -88.139856 -0.520413 -0.785564 -17.477123 12.546219 -2.334528 -5.464836 3.596114 -0.156431 -5.464836 3.596114 -0.156431 -4.096359 2.698739 -0.085097 -19.663594 20.150393 10.380403 -38.391464 6.927923 23.789451 0.215506 -13.120602 0.134016 -7.670600 -0.718186 19.293044 5.643427 1.135435 -3.219158 2.864811 7.197307 -6.541355 -20.257289 -8.403333 -11.159308 -31.979633 11.079594 -63.908489 -22.041499 -31.139045 -4.421134 2.795478 6.786934 5.466566 16.279578 3.169614 -3.379613 6.492752 -4.930946 2.601817 0.016149 8.556048 8.782485 5.949163 -3.907421 -8.076905 14.476326 8.821667 -1.273800 22.040264 3.153807 -1.307727 16.502046 -8.746564 0.249220 -0.877783 -0.514081 -0.077631
13.374620 92.143189 21.311610 -88.104456 -0.519726 -0.818784 -17.358573 12.488589 -2.288907 -5.454647 3.599530 -0.158919 -5.454647 3.599530 -0.158919 -4.088702 2.701320 -0.086993 -19.658462 20.184103 10.395508 -38.377117 6.991854 23.804379 0.205098 -13.113679 0.149764 -7.698657 -0.912169 19.301737 5.580253 1.216500 -3.136034 2.845849 7.233533 -6.525243 -20.262924 -8.364857 -11.163821 -31.999021 11.150587 -63.849990 -22.118269 -30.951580 -4.565490 2.825123 6.825075 5.382688 16.531838 3.155756 -3.397591 6.389660 -4.899064 2.675195 -0.066642 8.346012 8.609996 5.849202 -3.788862 -7.901498 14.714620 8.835106 -1.221426 21.864842 3.061378 -1.392467 16.309258 -8.795997 0.262035 -0.860859 -0.434736 -0.040446
13.448169 92.109920 21.322788 -88.062412 -0.479088 -0.879227 -17.214849 12.404806 -2.208582 -5.449209 3.601642 -0.161283 -5.449209 3.601642 -0.161283 -4.084609 2.702923 -0.088778 -19.660466 20.204073 10.403731 -38.377466 7.031206 23.812849 0.204254 -13.105133 0.170254 -7.750286 -1.055255 19.240104 5.521057 1.293650 -2.951040 2.810158 7.297042 -6.543688 -20.271421 -8.345044 -11.172722 -32.038388 11.222052 -63.816247 -22.166388 -30.710620 -4.687773 2.836954 6.838527 5.327026 16.852638 3.077134 -3.374355 6.295646 -4.851369 2.683732 -0.121997 8.207392 8.525196 5.757174 -3.711078 -7.777227 15.052663 8.809247 -1.144895 21.539239 2.933332 -1.453697 16.339960 -8.798469 0.233992 -0.842436 -0.368515 -0.010802
13.516917 92.081353 21.336663 -87.949562 -0.478103 -0.891113 -17.139006 12.349478 -2.188774 -5.443916 3.601136 -0.160883 -5.443916 3.601136 -0.160883 -4.080643 2.702538 -0.088514 -19.664127 20.219844 10.403378 -38.379978 7.060315 23.807911 0.196472 -13.055947 0.209236 -7.812084 -1.180076 19.105427 5.459815 1.435066 -2.722629 2.804682 7.354054 -6.538635 -20.264734 -8.316302 -11.197378 -32.094816 11.303569 -63.745489 -22.218988 -30.499101 -4.802602 2.838616 6.838570 5.282349 16.931441 3.071101 -3.386182 6.346963 -4.843597 2.684204 -0.155143 8.072412 8.486729 5.630521 -3.604812 -7.698229 15.115742 8.815451 -1.114402 21.404899 2.841004 -1.523195 16.261940 -8.780955 0.225869 -0.828136 -0.341040 0.006941
